<svg width="20" height="20" viewBox="0 0 20 20" fill="none" xmlns="http://www.w3.org/2000/svg">
<path d="M7.66667 7.5C6.47005 7.5 5.5 8.47005 5.5 9.66667C5.5 10.1269 5.8731 10.5 6.33333 10.5H9.66667C10.1269 10.5 10.5 10.1269 10.5 9.66667C10.5 8.47005 9.52995 7.5 8.33333 7.5H7.66667Z" stroke="#004446"/>
<path d="M8 7.5V6C8 4.89543 8.89543 4 10 4H13C14.1046 4 15 4.89543 15 6V17.5" stroke="#004446" stroke-linecap="round"/>
<circle cx="5.5" cy="12.5" r="0.5" fill="#004446"/>
<circle cx="4.5" cy="14.5" r="0.5" fill="#004446"/>
<circle cx="7.5" cy="12.5" r="0.5" fill="#004446"/>
<circle cx="6.5" cy="14.5" r="0.5" fill="#004446"/>
<circle cx="9.5" cy="12.5" r="0.5" fill="#004446"/>
<circle cx="8.5" cy="14.5" r="0.5" fill="#004446"/>
<circle cx="10.5" cy="14.5" r="0.5" fill="#004446"/>
</svg>
